<?xml version="1.0" encoding="UTF-8" standalone="no"?><!DOCTYPE svg PUBLIC "-//W3C//DTD SVG 1.1//EN" "http://www.w3.org/Graphics/SVG/1.1/DTD/svg11.dtd"><svg width="100%" height="100%" viewBox="0 0 10207 5862" version="1.1" xmlns="http://www.w3.org/2000/svg" xmlns:xlink="http://www.w3.org/1999/xlink" xml:space="preserve" xmlns:serif="http://www.serif.com/" style="fill-rule:evenodd;clip-rule:evenodd;stroke-linejoin:round;stroke-miterlimit:2;"><path d="M825.744,5845.02c-0,-0 -1506.26,-1600.75 -450.063,-3093.97c394.117,-557.188 1400.28,-870.076 2325.2,-616.242c546.325,149.933 1374.87,127.812 2184.45,-1193.76c1104,-1802.26 5687.08,-982.762 4792.5,2174.9c-376.833,1330.08 1027.67,1390.62 331.958,2731.96l-9184.05,-2.875Z" style="fill:#ebf3fa;fill-rule:nonzero;"/><path d="M8980.33,2638.28l-3280.92,2744.78l-1726.21,-1470.54c-323.125,284.5 -822.083,723.666 -1324.08,1164.33c-343.05,301.167 -620.787,544.5 -845.908,741.458l-1567.89,-1.833c434.792,-370.167 2185.43,-1908.54 3364.83,-2948.21l360.625,-317.888l1745,1486.6l2561.29,-2142.79l713.251,744.096Z" style="fill:#d5e5fb;fill-rule:nonzero;"/><path d="M7851.75,1556.62l1562.58,1567.35l441.417,-1790.48l-2004,223.129Z" style="fill:#d5e5fb;fill-rule:nonzero;"/><path d="M2729.29,4859.14c-5.838,-143.5 -18.417,-268.375 -33.471,-355.417c-24.004,-138.792 -45.608,-218.625 -45.858,-219.458c-3.163,-12.209 -48.834,-61.626 -150.384,-60.084c-101.545,1.5 -91.916,66.292 -91.916,66.292c-0.009,2.166 0.279,4.208 0.729,5.75c0.979,3.333 94.191,341.333 90.154,777.708c-0.054,6.125 -0.742,16.709 -0.308,23.75c0.004,0.042 235.325,6.084 235.379,0c8.208,-38.125 4.204,-143.791 -4.325,-238.541Z" style="fill:#b7d3f3;fill-rule:nonzero;"/><path d="M2758.88,5071.77c-0.071,6.083 -3.279,10.958 -7.196,10.958l-0.091,-0c-3.913,-0.083 -7.029,-4.958 -7.075,-10.958l-201.671,-0c-0.071,6.083 -3.283,10.958 -7.196,10.958l-0.096,-0c-3.983,-0.083 -7.146,-5.125 -7.1,-11.25c1.171,-124.917 -5.95,-241.584 -16.729,-344.542c-26.812,-256.75 -76.371,-428.333 -77.075,-430.708c-0.446,-1.542 -0.725,-3.584 -0.725,-5.75c0,-0 -9.633,-64.75 91.904,-66.292c101.563,-1.542 147.238,47.875 150.4,60.084c0.188,0.624 12.421,45.833 28.684,127.124c5.387,26.917 11.2,57.792 17.175,92.334c15.045,87.042 27.629,211.917 33.466,355.417c8.525,94.75 11.53,174.5 3.325,212.625Z" style="fill:#d2e3fc;fill-rule:nonzero;"/><path d="M2513.55,5082.73l790.654,-0c0,-0 -18.416,-74.5 -476.308,-63.417c-324.042,7.875 -314.346,63.417 -314.346,63.417Z" style="fill:#c5dcf8;fill-rule:nonzero;"/><path d="M2449.2,5861.02c91.675,-464.084 68.1,-748.875 67.988,-752.459c-0.234,-7.166 12.937,-13.625 20.02,-13.875c7.171,-0.125 38.813,-2.125 42.475,4c4.796,8 23.259,358.875 -113.371,762.334l-17.112,-0Z" style="fill:#b7d3f3;fill-rule:nonzero;"/><path d="M3187.41,5861.02c-91.667,-464.084 -68.084,-748.875 -67.959,-752.459c0.209,-7.166 -12.958,-13.625 -20.041,-13.875c-7.167,-0.125 -38.792,-2.125 -42.459,4c-4.791,8 -23.291,358.875 113.371,762.334l17.088,-0Z" style="fill:#b7d3f3;fill-rule:nonzero;"/><path d="M3333.71,5861.02c-91.666,-464.084 -68.083,-748.875 -67.958,-752.459c0.208,-7.166 -12.958,-13.625 -20.041,-13.875c-7.168,-0.125 -38.792,-2.125 -42.459,4c-4.796,8 -23.25,358.875 113.375,762.334l17.083,-0Z" style="fill:#b7d3f3;fill-rule:nonzero;"/><path d="M2596.48,5861.02c91.675,-464.084 68.104,-748.875 67.988,-752.459c-0.229,-7.166 12.937,-13.625 20.021,-13.875c7.175,-0.125 38.816,-2.125 42.475,4c4.8,8 23.258,358.875 -113.371,762.334l-17.113,-0Z" style="fill:#b7d3f3;fill-rule:nonzero;"/><path d="M3304.66,5106.52l-790.641,0c-8.908,0 -16.196,-7.291 -16.196,-16.208l0,-10.625c0,-8.916 7.288,-16.208 16.196,-16.208l790.641,-0c8.917,-0 16.209,7.292 16.209,16.208l-0,10.625c-0,8.917 -7.292,16.208 -16.209,16.208Z" style="fill:#b7d3f3;fill-rule:nonzero;"/><path d="M3276.91,4392.48l262.791,-56.917l15.5,37.709c0,-0 -290,172.583 -317.167,164.125c-27.17,-8.459 38.876,-144.917 38.876,-144.917Z" style="fill:#ffb27d;fill-rule:nonzero;"/><path d="M3037.96,5581.14c-6.583,7.541 -7.416,15.958 -4.166,24.958c-0,0.042 0.041,0.083 0.083,0.125c6,16.625 25.917,35.25 49.042,53.792c2.958,2.375 5.583,4.583 7.875,6.583c0.583,0.5 1.208,1.042 1.75,1.583c0.458,0.417 0.916,0.833 1.375,1.209c21.541,19.875 13.458,24.416 52.166,64.75c44.167,45.958 74.584,46.791 83.209,42.625c7.333,-3.584 -7.542,-27.959 -24,-55.334c-0.792,-1.333 -1.584,-2.666 -2.417,-4c-2.167,-3.666 -4.375,-7.333 -6.546,-11c-19.292,-32.958 -14.329,-48.458 -9.787,-97.5c3.75,-39.875 62.041,-222.75 62.041,-222.75l-84.624,-14.583c-0,-0 -25.5,145.625 -53.584,168.042c-15,11.958 -31.833,12.125 -46.25,20.958c-1.042,0.625 -2.042,1.25 -3,1.917c-8.208,5.416 -16.542,11.041 -23.167,18.625Z" style="fill:#ffb27d;fill-rule:nonzero;"/><path d="M3037.96,5581.14c-6.583,7.541 -7.416,15.958 -4.166,24.958c-0,0.042 0.041,0.083 0.083,0.125c7.375,16.625 26.75,35.125 49.125,53.625c2.917,2.417 5.5,4.667 7.792,6.75c0.583,0.5 1.208,1.042 1.75,1.583c0.458,0.417 0.916,0.833 1.375,1.209c21.541,19.875 13.458,24.416 52.166,64.75c44.167,45.958 74.584,46.791 83.209,42.625c7.333,-3.584 -7.542,-27.959 -24,-55.334c-8.584,-3.166 -48.546,-19.375 -78.75,-58.041c-26.584,-33.917 -44.292,-77.542 -62.417,-102.792c-1.042,0.625 -2.042,1.25 -3,1.917c-8.208,5.416 -16.542,11.041 -23.167,18.625Z" style="fill:#1c468a;fill-rule:nonzero;"/><path d="M3720.41,5528.27c5.208,26.125 42.458,21.75 84.083,11.583c41.583,-10.167 31.708,1.917 90.917,-4.625c59.208,-6.542 77.166,-28.625 78.958,-37.417c1.625,-7.833 -27.625,-10.583 -59.042,-14.208c-3.917,-0.417 -7.916,-0.917 -11.875,-1.417c-35.416,-4.458 -61.374,-27.291 -93.542,-46.083c-30.499,-17.792 -75.999,-90.25 -75.999,-90.25l-81.209,6.417c0,-0 42.625,64.75 59.125,92.875c9.667,16.541 9.167,38.458 7.958,55.333c-0.624,9.208 -1.208,18.583 0.626,27.792Z" style="fill:#ffb27d;fill-rule:nonzero;"/><path d="M3804.5,5539.85c41.583,-10.167 31.708,1.917 90.917,-4.625c59.208,-6.542 77.166,-28.625 78.958,-37.417c1.625,-7.833 -27.625,-10.583 -59.042,-14.208l-0.292,0.625c0,-0 -35.499,25.167 -84.791,26.333c-40.167,1 -82.708,-10.541 -110.459,-10.083c-0.624,9.208 -1.208,18.583 0.626,27.792c5.208,26.125 42.458,21.75 84.083,11.583Z" style="fill:#1c468a;fill-rule:nonzero;"/><path d="M3539.71,4335.56c0,0 19.375,-47.416 40.667,-49.333c21.25,-1.958 89,-12.584 93.833,-2.917c4.834,9.667 0,44.5 -14.541,57.084c-14.5,12.583 -104.459,32.875 -104.459,32.875l-15.5,-37.709Z" style="fill:#ffb27d;fill-rule:nonzero;"/><path d="M3409.21,5009.02l-175,471c0,-0 -26.879,2.583 -52.666,-4.834c-23.713,-6.833 -50.917,-24.792 -50.917,-24.792c0,0 43.417,-452.249 123.041,-546.291c79.584,-94.083 155.542,104.917 155.542,104.917Z" style="fill:#163560;fill-rule:nonzero;"/><path d="M2716.99,4818.48c-0,-0 502.879,-170.042 615.046,-133.875c112.166,36.208 448.875,706.167 448.875,706.167c-0,-0 -7.583,10.083 -28.334,17.875c-19.292,7.249 -66,6.791 -66,6.791c0,0 -303.916,-260.5 -340.083,-336.458c-36.166,-76 -50.625,-148.333 -86.833,-141.125c-36.167,7.25 -466.696,177.292 -564.38,76c-97.683,-101.292 -72.137,-232.917 -72.137,-232.917l93.846,37.542Z" style="fill:#1c468a;fill-rule:nonzero;"/><path d="M3003.69,3619.43c-21.738,-12.333 -47.788,-13.708 -66.009,-12.625c4.692,-4.833 13.921,-6.625 13.921,-6.625c-11.3,-1.666 -36.516,9.542 -36.516,9.542c-157.167,-60.542 -181.871,170.875 -178.567,224.625c3.275,53.75 3.675,115.625 -74.783,163.875c-154.371,94.875 -24.121,260.5 -24.121,260.5c1.216,0.708 71.825,120.458 71.825,120.458c-3.963,-43.458 196.496,-272.708 301.079,-341.375c25.475,-37.5 34.517,-103.708 35.183,-108.917c-4.375,52.501 -13.375,81.959 -21.4,98.542c88.567,-81.5 36.984,-375.25 -20.612,-408Z" style="fill:#b5453c;fill-rule:nonzero;"/><path d="M3004.34,4041.23c0.521,0.208 -50.5,26.708 -88.874,16.208c-36.1,-9.833 -59.688,-56.625 -59.192,-56.75c15.291,-3.042 19.7,-24.041 19.375,-114.292l6.912,1.334l116.2,23c0,-0 -2.641,36.583 -2.72,71.041c-0.08,28.917 1.674,56.376 8.299,59.459Z" style="fill:#ffb27d;fill-rule:nonzero;"/><path d="M2998.76,3910.73c0,-0 -2.641,36.583 -2.72,71.041c-65.025,-1.833 -99.396,-61.166 -113.48,-94.041l116.2,23Z" style="fill:#ed975d;fill-rule:nonzero;"/><path d="M2870.55,3875.1c0,-0 -34.079,-53.875 -42.254,-99.917c-5.842,-32.833 10.9,-154.708 133.337,-137.125c0,0 35.559,3.5 68.988,26.084c26.583,17.916 64.958,56.708 22.042,163l-11.125,35.916l-170.988,12.042Z" style="fill:#b5453c;fill-rule:nonzero;"/><path d="M3020.47,3943.35c0,-0 -153.85,2.542 -153.958,-93.292c-0.105,-95.833 -20.034,-160.041 78.195,-165.708c98.205,-5.667 117.33,30.875 125.163,62.833c7.833,32 -9.375,193.042 -49.4,196.167Z" style="fill:#ffb27d;fill-rule:nonzero;"/><path d="M3014.78,3682.02c0,0 -42.121,112.417 -106.771,129.042c-64.646,16.625 -92.687,-0.708 -92.687,-0.708c-0,-0 49.587,-39.375 59.879,-108.125c-0,-0 107.804,-73.75 139.579,-20.209Z" style="fill:#b5453c;fill-rule:nonzero;"/><path d="M3004.34,3691.14c-0,0 31.45,25.084 39.116,49.501c7.667,24.416 11.125,74.625 25.792,72.916c0,0 31.708,-76.416 -3.958,-119.625c-37.809,-45.875 -60.95,-2.792 -60.95,-2.792Z" style="fill:#b5453c;fill-rule:nonzero;"/><path d="M2661.74,4455.1c-15.171,-63.625 36.45,-187.083 90.333,-289.292c48.892,-92.667 99.642,-167.833 104.2,-165.125c128.946,76.542 140.6,12.917 140.6,12.917l0.004,-0c0.05,-0 117.121,15.541 150.288,72.625c41.125,70.833 85.583,268.792 129.75,306.25c-6.792,20.75 -3.875,31.792 3.291,57.5c1.542,5.5 3.25,10.75 5.126,15.708c6.666,18.084 14.958,32.792 22.166,45.5c-22.458,13.667 -65.792,39.583 -97.708,20.959c-48.667,-28.501 -86.667,-115.209 -108.042,-149.75c-0.083,-0.126 -0.125,-0.25 -0.208,-0.376c-46.459,262.959 16.708,322.834 -15.292,350.542c-33.75,29.292 -81.996,-13.916 -188.129,32.084c-69.609,30.208 -166.213,73.833 -231.242,81.458c-34.104,4 -59.554,-1.958 -67.85,-24.958c-24.121,-66.959 91.658,-244.709 62.713,-366.042Z" style="fill:#1c468a;fill-rule:nonzero;"/><path d="M2986.27,3885.27c0,-0 2.867,12.166 33.154,10.291c0,0 25.446,-1.542 24.654,-14.958c0,-0 -24.662,-9.5 -57.808,4.667Z" style="fill:#fff;fill-rule:nonzero;"/><path d="M2599.03,4821.14c8.296,23 33.746,28.958 67.85,24.958c45.013,-19.625 239.446,-94.958 237.275,-146c-3.233,-75.542 -37.387,-77.959 -13.267,-171.25c19.371,-74.875 -160.287,-214.125 -188.945,-244.417c-53.884,102.209 -55.371,107.042 -40.2,170.667c28.945,121.333 -86.834,299.083 -62.713,366.042Z" style="fill:#163560;fill-rule:nonzero;"/><path d="M2577.05,4548.56c34.483,-48.416 70.404,-74 94.033,-86.875c-5.437,-14.042 145.038,-198.5 145.038,-227.083c-0,-28.958 40.15,-233.917 40.15,-233.917c-0,0 -125.379,7.75 -168.792,68.292c-54.292,75.708 -167.046,367.083 -110.429,479.583Z" style="fill:#1c468a;fill-rule:nonzero;"/><path d="M2671.08,4461.68l250.559,65.375l-23.521,42.208c-0,0 -304.913,-2.125 -321.071,-20.708c-16.158,-18.541 94.033,-86.875 94.033,-86.875Z" style="fill:#ffb27d;fill-rule:nonzero;"/><path d="M3101.75,4382.39c21.375,34.541 59.375,121.249 108.042,149.75c31.916,18.624 75.25,-7.292 97.708,-20.959c-7.208,-12.708 -15.5,-27.416 -22.166,-45.5c-17.917,4.125 -39.751,9.334 -53.876,13.584c-27.416,8.291 -129.708,-96.875 -129.708,-96.875Z" style="fill:#163560;fill-rule:nonzero;"/><path d="M2921.64,4527.06c-0,0 78.679,-22.291 97.421,-17.083c18.729,5.208 82.937,47.75 73.937,59.291c-9.042,11.542 -65.608,-6.916 -91.638,-3.416c-26.029,3.5 -46.158,16.333 -64.9,13.541c-18.741,-2.749 -38.341,-10.125 -38.341,-10.125l23.521,-42.208Z" style="fill:#ffb27d;fill-rule:nonzero;"/><path d="M2921.64,4527.06c-0,0 38.495,-19.792 49.445,-31.041c1.38,-1.417 3.717,-1.125 4.78,0.541c2.933,4.625 5.679,13.583 -7.821,22.458c-19.438,12.792 -46.404,8.042 -46.404,8.042Z" style="fill:#ffb27d;fill-rule:nonzero;"/><path d="M3285.25,4637.77l-367.079,0c-0,-16.166 13.1,-29.291 29.262,-29.291l337.817,-0l0,29.291Z" style="fill:#ed7d2b;fill-rule:nonzero;"/><path d="M3284.21,4237.93l567.542,0l-136.125,399.833l-571.25,0l139.833,-399.833Z" style="fill:#ed7d2b;fill-rule:nonzero;"/><path d="M3860.12,4237.98l-136.167,399.75l-571.208,-0l139.792,-399.75l567.583,-0Z" style="fill:#f99746;fill-rule:nonzero;"/><path d="M3554.12,4434.14c-3.542,15.291 -18.791,27.666 -34.042,27.666c-15.291,0 -24.792,-12.375 -21.291,-27.666c3.541,-15.25 18.792,-27.667 34.041,-27.667c15.292,-0 24.834,12.417 21.292,27.667Z" style="fill:#f9ddbf;fill-rule:nonzero;"/><path d="M3860.12,4237.98l-136.167,399.75l-378.291,-0c250.583,-85.5 317.291,-346.292 328.5,-399.75l185.958,-0Z" style="fill:#ed893e;fill-rule:nonzero;"/><path d="M2212.45,5861.02c7.179,-0 13.317,-5.042 14.542,-11.959l71.283,-404l102.529,-581.125l28.671,-162.458l-73.029,-2.083l-12.671,94.333l-88.963,662.875l-52.745,392.917c-0.813,6.083 4.058,11.5 10.383,11.5Z" style="fill:#95c0f4;fill-rule:nonzero;"/><path d="M2343.77,4793.73c47.317,20.875 57.029,70.208 57.029,70.208l28.671,-162.458l-73.029,-2.083l-12.671,94.333Z" style="fill:#78acea;fill-rule:nonzero;"/><path d="M4028.87,5861.02c-7.167,-0 -13.292,-5.042 -14.542,-11.959l-71.25,-404l-102.541,-581.125l-28.667,-162.458l73,-2.083l12.667,94.333l89,662.875l52.708,392.917c0.833,6.083 -4.042,11.5 -10.375,11.5Z" style="fill:#95c0f4;fill-rule:nonzero;"/><path d="M3897.54,4793.73c-47.292,20.875 -57,70.208 -57,70.208l-28.667,-162.458l73,-2.083l12.667,94.333Z" style="fill:#78acea;fill-rule:nonzero;"/><path d="M2163.72,4765.27l1870.15,-0c24.5,-0 44.542,-20.042 44.542,-44.542l-0,-38.5c-0,-24.5 -20.042,-44.542 -44.542,-44.542l-1870.15,0c-24.5,0 -44.542,20.042 -44.542,44.542l0,38.5c0,24.5 20.042,44.542 44.542,44.542Z" style="fill:#78acea;fill-rule:nonzero;"/><path d="M6808.91,4569.68c-0,0 -48.542,60.167 -33.334,68.375c15.125,8.209 55.209,23.542 64.667,13.875c9.458,-9.666 12.417,-80.583 12.417,-80.583l-43.75,-1.667Z" style="fill:#ffb27d;fill-rule:nonzero;"/><path d="M6810.87,4570.68c-0,0 -19.833,6.875 -27.625,17.209c-7.792,10.291 -25.041,26.041 -20.833,30.375c4.249,4.374 29,-14.876 29,-14.876l19.458,-32.708Z" style="fill:#ffb27d;fill-rule:nonzero;"/><path d="M6992.29,3766.23c-0,-0 -54.667,509.041 -59.542,523.542c-1.042,3.125 -5.333,19.25 -11.375,42.416c-8.625,33.125 -20.792,80.709 -32.334,125.959c-17.374,68.333 -33.333,131.416 -33.333,131.416l-47.499,-15.667c-0,0 -2.459,-247.375 9.749,-304.333c12.25,-56.958 51.292,-406.958 71.042,-454.041c19.667,-47.084 103.292,-49.292 103.292,-49.292Z" style="fill:#aec3ff;fill-rule:nonzero;"/><path d="M6878.58,4986.89l-298.208,-78.209c-38.791,-10.208 -62.25,-50.291 -52.083,-89.083l33.916,-129.25c10.167,-38.792 50.25,-62.25 89.084,-52.042l298.208,78.209c38.833,10.166 62.25,50.25 52.083,89.083l-33.917,129.208c-10.166,38.834 -50.249,62.25 -89.083,52.084Z" style="fill:#a02e2e;fill-rule:nonzero;"/><path d="M6871.5,4695.68l-106.542,-27.958l7.334,-27.875c1.25,-4.792 6.208,-7.667 10.999,-6.417l26.751,7l49.083,12.875l13.25,3.458c0.917,0.25 1.708,0.626 2.5,1.084c3.25,2.041 4.958,6.042 3.958,9.958l-7.333,27.875Zm-269.959,4.917l-34.291,130.708c-6.625,25.334 0.958,51.167 17.792,68.958c5.541,5.917 12.125,10.959 19.583,14.751l0.041,-0l0,0.041c4.626,2.375 9.584,4.292 14.876,5.667l297.666,78.083c38.959,10.209 79.209,-13.291 89.417,-52.25l34.292,-130.75c10.208,-38.958 -13.292,-79.208 -52.25,-89.416l-102.5,-26.875l7.291,-27.875c3.417,-12.917 -4.375,-26.126 -17.25,-29.501l-11.208,-2.958l-62.375,-16.333l-15.5,-4.083c-6.208,-1.626 -12.709,-0.709 -18.292,2.541c-5.583,3.25 -9.583,8.5 -11.208,14.709l-7.292,27.875l-59.375,-15.584c-2.375,-0.625 -4.708,-1.083 -7.041,-1.458l-0.084,-0c-23.833,-3.833 -47.499,4.625 -63.708,21.083l0,0.042c-8.709,8.791 -15.25,19.875 -18.584,32.625Z" style="fill:#bc3f3f;fill-rule:nonzero;"/><path d="M6837.25,4653.27c0,-0 13.25,-22.292 8.292,-30.084c-4.959,-7.791 -22.834,23.125 -22.834,23.125c0,0 12.208,-26.542 7.667,-30.916c-4.583,-4.375 -23.292,26.125 -23.292,26.125c0,-0 11.667,-25.792 7.584,-26.667c-4.084,-0.875 -17.959,21.708 -17.959,21.708c0,0 7.209,-19.333 0.625,-18.375c-6.583,0.917 -20.833,18.5 -20.833,18.5l60.75,16.584Z" style="fill:#ffb27d;fill-rule:nonzero;"/><path d="M6921.37,4332.18c-8.625,33.125 -20.792,80.709 -32.334,125.959c-7.416,-20.917 -16.874,-54.209 -22.833,-99.876c-11,-84.208 22.792,-263.708 22.792,-263.708l32.375,237.625Z" style="fill:#9db0f4;fill-rule:nonzero;"/><path d="M7546.91,4548.73c-0,-0 52.875,42.958 59.417,56.375c6.499,13.417 22.958,63.083 22.082,79.083c-0.875,16.042 -40.504,-36.625 -52.171,-40.875c-11.62,-4.25 12.172,21.625 9.501,27.167c-2.663,5.541 -27.496,-12.583 -36.954,-18.5c-9.459,-5.917 -16.088,-46.083 -30.209,-67.958c-14.087,-21.834 28.334,-35.292 28.334,-35.292Z" style="fill:#ffb27d;fill-rule:nonzero;"/><path d="M6853.16,5834.73l263.584,-0c18.875,-12.792 -5.083,-138 -5.083,-138c-0,-0 -71.959,-27.333 -84.375,28.208c-12.459,55.459 -91.625,73.084 -133.542,79.875c-28.667,4.667 -37.75,20.417 -40.584,29.917Z" style="fill:#233862;fill-rule:nonzero;"/><path d="M7244.08,5834.73l263.621,-0c18.879,-12.792 -5.121,-138 -5.121,-138c0,-0 -71.917,-27.333 -84.375,28.208c-12.458,55.459 -91.625,73.084 -133.5,79.875c-28.708,4.667 -37.75,20.417 -40.625,29.917Z" style="fill:#233862;fill-rule:nonzero;"/><path d="M6924.08,4557.27c0,0 11.833,147.834 25.75,325.542c18.917,241.375 70,839.834 70,839.834c0,-0 33.459,28.541 107.584,12.916c-0,0 63.083,-206.458 81.958,-442.083c0.292,-3.875 0.583,-7.75 0.875,-11.667c17.583,-239.875 44.875,-745 44.875,-745l-331.042,20.458Z" style="fill:#2b478b;fill-rule:nonzero;"/><path d="M6920.04,4506.18c-0,0 15.874,198.917 29.791,376.625l259.542,410.667c0.292,-3.875 0.583,-7.75 0.875,-11.667c17.583,-239.875 44.875,-745 44.875,-745l-335.083,-30.625Z" style="fill:#233862;fill-rule:nonzero;"/><path d="M6995.66,4506.18c-0,0 188.25,468.584 248.416,646.209c42.875,126.5 163.75,570.333 163.75,570.333c0,-0 52.584,16 96.746,-14.917c-0,0 45.004,-453.458 -45.875,-581.333c-48.204,-67.833 -11.954,-705.125 -207.371,-710.584c-195.458,-5.458 -255.666,90.292 -255.666,90.292Z" style="fill:#2b478b;fill-rule:nonzero;"/><path d="M7354.37,4548.73c-78.458,44.292 -414.75,43.292 -430.292,8.541c-34.791,-77.625 -43.541,-471.999 -27.125,-592.958c0,0 8.5,-185.917 27.125,-177.708c124.167,-57.083 325.209,-5.25 325.209,-5.25c54.208,15.958 49.583,139.833 64.708,313.792c1.917,22.416 4.083,45.749 6.5,69.916c10.708,107.417 26.292,230.792 49.917,360.958c1.583,8.584 -4.375,16.167 -16.042,22.709Z" style="fill:#aec3ff;fill-rule:nonzero;"/><path d="M7156.41,3760.43c-2.084,33.25 -45.459,29.5 -97.584,17.584c-52.125,-11.876 -33.25,-42.626 -33.25,-42.626c0,0 0.75,-23.624 4.042,-51.958c1.208,-10.292 2.708,-21.25 4.708,-31.875c0.917,-5.166 1.917,-10.333 3.084,-15.25c6.833,-29.292 104.167,-1.041 103.5,6.834c-1.917,21.25 13.458,91.166 15.5,117.291Z" style="fill:#ffb27d;fill-rule:nonzero;"/><path d="M7044.66,3818.48l-4.125,-45.958l57.708,10.916l-22.209,41l-31.374,-5.958Z" style="fill:#233862;fill-rule:nonzero;"/><path d="M7026.79,3713.77l-34.5,52.459c-0,-0 -0,32.25 29.958,55.667l47.167,-43.917c-0,-0 -30.5,-11.625 -42.625,-64.209Z" style="fill:#9db0f4;fill-rule:nonzero;"/><path d="M7069.41,3777.98c-0,-0 9.749,35.083 28.625,51.166c-0,0 73.666,-19.791 91.208,-57.541l-38.333,-49.5c-0,-0 -1.875,37.458 -81.5,55.875Z" style="fill:#9db0f4;fill-rule:nonzero;"/><path d="M7141.46,3659.68c0,0 -46.875,31.167 -111.833,23.75c1.208,-10.292 2.708,-21.25 4.708,-31.875c12.792,-3.083 23.542,-5.041 23.542,-5.041l83.583,13.166Z" style="fill:#e2915a;fill-rule:nonzero;"/><path d="M7171.21,3624.27c-22.916,63.041 -106.541,46.958 -142.124,36.833c-10.042,-2.834 -16.251,-5.208 -16.251,-5.208c-11,-5 -14.417,-24.209 -13.417,-48.459c1.876,-48 20.834,-115.75 31.709,-132.083c16.375,-24.584 43.667,-49.542 124.792,-14.75c81.125,34.792 44.666,82.875 15.291,163.667Z" style="fill:#ffb27d;fill-rule:nonzero;"/><path d="M7233.83,3591.89c-25.583,20.875 -80.583,59.501 -80.583,59.501c-0,-0 6.125,-7.25 13.583,-28.084c0.875,-2.375 1.125,-5.833 1,-9.5c-0.291,-10.208 2.167,-20.416 7.542,-29.125c3.333,-5.458 4.542,-11.083 0.333,-15.083c-6.958,-6.584 -18.833,-0.542 -26.625,4.792c-5.125,3.5 -11.833,3.708 -17.125,0.458c-0.041,-0.042 -0.083,-0.042 -0.125,-0.083c-21.833,-13.709 2.292,-37.834 -15.458,-57.876c-17.833,-20.041 -94.75,-22.791 -91.667,-35.333c-26.25,-14.833 -9.708,-69.583 -9.208,-72.5c0,0 37.666,3.334 84.75,-8.416c38.209,-9.584 80.333,14.958 93.625,25.041c-0,-2.416 -0.375,-5.75 -2.125,-9.333c-0,-0 5.792,5.708 5.708,12.375c0.584,0.583 0.834,1 0.667,1.125c-0,-0 7.583,-0.167 12.042,2.792c-0,-0 -3.25,-1.042 -4.792,0.916c-0.209,0.209 -0.417,0.334 -0.667,0.5c51.125,36.125 50.376,140.459 29.125,157.833Z" style="fill:#233862;fill-rule:nonzero;"/><path d="M7050.29,3615.14c-0,-0 -4.125,7.958 -24.792,1.375c-0,-0 -17.375,-5.542 -14.5,-14.709c-0,0 18.75,-2.291 39.292,13.334Z" style="fill:#fff;fill-rule:nonzero;"/><path d="M7044.66,3818.48c-0,-0 -46.084,582 -45.417,630.5c0.625,48.5 51.042,99.75 51.042,99.75c-0,-0 40.125,-43.958 47.958,-90.333c7.833,-46.375 -22.209,-633.959 -22.209,-633.959l-31.374,-5.958Z" style="fill:#2a4e96;fill-rule:nonzero;"/><path d="M7249.33,3781.35c0,-0 74.334,17.792 133.125,130.708c58.792,112.917 105.209,340.667 133.251,400.75c28.083,60.125 47.332,249.417 47.332,249.417l-44.458,21.792c0,-0 -107.249,-194 -123.125,-257.625c-8.583,-34.417 -139.75,-309.959 -139.75,-309.959l-6.375,-235.083Z" style="fill:#aec3ff;fill-rule:nonzero;"/><path d="M7354.37,4548.73l-0.042,-0c-140,-20.125 -99.875,-483.458 -88.916,-485.292c11,-1.833 51.249,82.834 51.249,82.834l3.834,18.791c10.708,107.417 26.292,230.792 49.917,360.958c1.583,8.584 -4.375,16.167 -16.042,22.709Z" style="fill:#9db0f4;fill-rule:nonzero;"/><path d="M9101.04,5560.85c-0,-0 58.292,53.208 46.917,91c-11.375,37.792 -64.001,63 -71.084,109.208c-7.125,46.167 -35.542,71.375 -61.125,71.375l-122,0c0,0 -18.833,-32.5 26.625,-42.291c45.5,-9.792 62.667,-64.084 59.834,-114.5c-2.834,-50.376 4.25,-117.584 4.25,-117.584l96.666,-22.375l19.917,25.167Z" style="fill:#233862;fill-rule:nonzero;"/><path d="M8385.96,5698.43c0,0 10.459,121.084 -15.166,133.667l-327.459,-0.667c0,0 0,-37.791 52.584,-46.208c52.625,-8.375 144.999,-39.167 160.666,-107.792c15.625,-68.583 129.375,21 129.375,21Z" style="fill:#233862;fill-rule:nonzero;"/><path d="M8109.46,3988.39c-0,-0 17.249,212.208 37.583,467.291c27.583,346.5 60.749,772.125 64.041,852.75c5.667,140 28.459,363.958 28.459,363.958c-0,0 54,53.209 162.041,30.792c0,0 96.334,-319.708 123.833,-658c0.417,-5.541 0.833,-11.125 1.292,-16.708c25.583,-344.375 65.375,-1069.5 65.375,-1069.5l-482.624,29.417Z" style="fill:#2a4e96;fill-rule:nonzero;"/><path d="M8109.46,3988.39c-0,-0 17.249,212.208 37.583,467.291l378.374,589.5c0.417,-5.541 0.833,-11.125 1.292,-16.708c25.583,-344.375 65.375,-1069.5 65.375,-1069.5l-482.624,29.417Z" style="fill:#233862;fill-rule:nonzero;"/><path d="M8188.33,4013.6c0,-0 311.334,768.5 516.041,1129.67c204.751,361.166 268.71,461.958 268.71,461.958c-0,-0 117.291,-46.208 127.958,-77.708c-0,-0 -78.292,-697.25 -215.376,-867.209c-77.457,-96.042 -144.291,-309.125 -140.957,-409.958c5.791,-173.875 -59.501,-375.375 -59.501,-375.375l-496.875,138.625Z" style="fill:#2a4e96;fill-rule:nonzero;"/><path d="M7939.71,4024.89c-0,-0 -58.126,78.708 -62.418,99.708c-4.291,21 -9.291,96 -2.332,117.958c6.958,21.958 43.207,-65.5 57.874,-75.583c14.667,-10.083 -9.166,34.417 -3.459,41.167c5.709,6.791 33.709,-27.334 44.751,-38.959c11.042,-11.667 5.833,-69.916 17.625,-105.375c11.75,-35.458 -52.041,-38.916 -52.041,-38.916Z" style="fill:#ffb27d;fill-rule:nonzero;"/><path d="M8196.08,2880.98c-0,-0 -78.541,731.292 -85.541,752.125c-1.542,4.542 -7.709,27.708 -16.376,61c-12.375,47.541 -29.833,115.917 -46.416,180.875c-25,98.208 -52,183.125 -52,183.125c0,-0 -11.875,7.667 -40.458,5.208c-19.542,-1.666 -30.084,-18.333 -30.084,-18.333c-0,0 2.876,-359.042 20.417,-440.875c17.583,-81.875 73.666,-584.621 102.042,-652.288c28.292,-67.67 148.416,-70.837 148.416,-70.837Z" style="fill:#fff;fill-rule:nonzero;"/><path d="M8094.16,3694.1c-12.375,47.541 -29.833,115.917 -46.416,180.875c-10.667,-30.042 -24.25,-77.875 -32.834,-143.417c-15.791,-121.041 32.751,-378.833 32.751,-378.833l46.499,341.375Z" style="fill:#dceaff;fill-rule:nonzero;"/><path d="M8716.25,4005.18c-112.75,63.584 -595.833,62.167 -618.208,12.25c-49.958,-111.5 -62.5,-678.083 -38.917,-851.875c0,0 12.208,-267.083 38.917,-255.333c178.458,-81.958 467.25,-7.5 467.25,-7.5c77.874,22.917 71.208,200.875 92.917,450.792c2.791,32.166 5.916,65.749 9.375,100.416c15.374,154.333 37.75,331.625 71.708,518.625c2.292,12.292 -6.292,23.208 -23.042,32.625Z" style="fill:#fff;fill-rule:nonzero;"/><path d="M8431.87,2872.68c-3,47.75 -65.291,42.334 -140.25,25.25c-74.875,-17.041 -47.75,-61.246 -47.75,-61.246c0,0 1.084,-33.941 5.833,-74.616c1.708,-14.784 3.875,-30.517 6.709,-45.775c1.333,-7.471 2.791,-14.838 4.499,-21.942c9.793,-42.042 149.626,-1.475 148.626,9.837c-2.709,30.521 19.375,130.967 22.333,168.492Z" style="fill:#ffb27d;fill-rule:nonzero;"/><path d="M8271.29,2956.06l-5.916,-66l82.916,15.625l-31.916,58.959l-45.084,-8.584Z" style="fill:#233862;fill-rule:nonzero;"/><path d="M8245.62,2805.61l-49.542,75.363c-0,-0 -0,46.375 43,80l67.75,-63.084c0,0 -43.792,-16.708 -61.208,-92.279Z" style="fill:#dceaff;fill-rule:nonzero;"/><path d="M8306.83,2897.89c0,0 14.042,50.376 41.167,73.501c0,-0 105.792,-28.459 131.042,-82.626l-55.125,-71.154c-0,0 -2.667,53.821 -117.084,80.279Z" style="fill:#dceaff;fill-rule:nonzero;"/><path d="M8410.33,2727.93c-0,-0 -67.334,44.779 -160.626,34.146c1.708,-14.784 3.875,-30.517 6.709,-45.775c18.416,-4.475 33.833,-7.263 33.833,-7.263l120.084,18.892Z" style="fill:#e2915a;fill-rule:nonzero;"/><path d="M8453.08,2677.05c-32.918,90.591 -153.042,67.462 -204.167,52.916c-14.417,-4.071 -23.334,-7.479 -23.334,-7.479c-15.792,-7.167 -20.708,-34.754 -19.291,-69.596c2.708,-68.954 29.958,-166.308 45.541,-189.77c23.542,-35.296 62.751,-71.188 179.25,-21.209c116.542,50 64.208,119.067 22.001,235.138Z" style="fill:#ffb27d;fill-rule:nonzero;"/><path d="M8543.08,2630.53c-36.791,29.992 -115.792,85.5 -115.792,85.5c0,0 8.792,-10.392 19.543,-40.329c1.208,-3.408 1.582,-8.375 1.416,-13.654c-0.416,-14.684 3.125,-29.342 10.833,-41.85c4.792,-7.813 6.542,-15.921 0.459,-21.659c-10,-9.458 -27.043,-0.775 -38.209,6.88c-7.375,5.045 -17.041,5.337 -24.625,0.629c-0.041,-0.034 -0.083,-0.063 -0.166,-0.092c-31.417,-19.679 3.291,-54.354 -22.251,-83.137c-25.583,-28.779 -136.083,-32.725 -131.624,-50.775c-37.75,-21.309 -13.959,-99.971 -13.293,-104.129c0,-0 54.167,4.787 121.751,-12.105c54.917,-13.783 115.417,21.471 134.583,35.992c-0,-3.471 -0.583,-8.313 -3.083,-13.417c-0,0 8.333,8.208 8.167,17.784c0.833,0.846 1.208,1.42 0.958,1.578c0,0 10.917,-0.208 17.292,4.001c-0,-0 -4.668,-1.475 -6.875,1.316c-0.292,0.313 -0.584,0.526 -0.958,0.734c73.458,51.883 72.374,201.791 41.874,226.733Z" style="fill:#bc3f3f;fill-rule:nonzero;"/><path d="M8279.37,2663.95c0,-0 -5.916,11.408 -35.624,1.946c0,-0 -24.916,-7.942 -20.791,-21.075c-0,-0 26.916,-3.3 56.415,19.129Z" style="fill:#fff;fill-rule:nonzero;"/><path d="M8271.29,2956.06c0,0 -66.166,836.125 -65.249,905.792c0.916,69.666 73.332,143.333 73.332,143.333c0,0 57.668,-63.166 68.917,-129.791c11.292,-66.667 -31.916,-910.75 -31.916,-910.75l-45.084,-8.584Z" style="fill:#2a4e96;fill-rule:nonzero;"/><path d="M8716.25,4005.18l-0.084,0c-201.125,-28.958 -143.499,-694.583 -127.707,-697.208c15.791,-2.625 73.624,119 73.624,119l5.501,26.958c15.374,154.333 37.75,331.625 71.708,518.625c2.292,12.292 -6.292,23.208 -23.042,32.625Z" style="fill:#dceaff;fill-rule:nonzero;"/><path d="M9307.46,4501.02l-425.292,123.751c-55.334,16.083 -113.792,-16 -129.917,-71.376l-53.625,-184.291c-16.084,-55.334 16,-113.792 71.374,-129.917l425.251,-123.75c55.375,-16.125 113.833,16 129.917,71.334l53.666,184.291c16.084,55.375 -16,113.833 -71.374,129.958Z" style="fill:#a02e2e;fill-rule:nonzero;"/><path d="M9083.75,4147.31l-151.917,44.25l-11.583,-39.792c-1.958,-6.833 2,-14.041 8.834,-16.041l38.166,-11.083l69.958,-20.417l18.917,-5.458c1.292,-0.376 2.583,-0.542 3.833,-0.5c5.542,0.083 10.584,3.749 12.208,9.291l11.584,39.75Zm-329.084,205.375l54.251,186.417c10.5,36.083 38.958,62.333 72.791,71.875c11.25,3.167 23.042,4.5 35.042,3.708l0.084,0c7.457,-0.5 14.999,-1.75 22.499,-3.958l424.5,-123.542c55.584,-16.166 87.792,-74.833 71.626,-130.417l-54.25,-186.416c-16.168,-55.583 -74.834,-87.792 -130.417,-71.625l-146.167,42.542l-11.542,-39.792c-5.333,-18.375 -24.666,-28.958 -43.041,-23.625l-16.042,4.666l-88.917,25.876l-22.083,6.458c-8.833,2.541 -16.209,8.5 -20.709,16.625c-4.457,8.125 -5.499,17.542 -2.916,26.375l11.583,39.791l-84.709,24.626c-3.332,0.958 -6.582,2.083 -9.749,3.375l-0.042,0.041l-0.041,0c-32.209,12.917 -55.125,40.792 -62.959,73.042l-0,0.042c-4.208,17.25 -4.083,35.708 1.208,53.916Z" style="fill:#bc3f3f;fill-rule:nonzero;"/><path d="M8956.33,4028.31c-0,0 -13.168,110.25 11.541,108.667c24.709,-1.584 85.209,-13.417 89.334,-32.417c4.125,-19 -46.334,-107.583 -46.334,-107.583l-54.541,31.333Z" style="fill:#ffb27d;fill-rule:nonzero;"/><path d="M8959.5,4028.02c0,-0 -18.916,23.499 -20.542,41.999c-1.625,18.5 -10.666,50.834 -2.167,52.917c8.459,2.084 23.959,-40.25 23.959,-40.25l-1.25,-54.666Z" style="fill:#ffb27d;fill-rule:nonzero;"/><path d="M8565.33,2902.73c0,-0 106.792,25.583 191.25,187.792c84.417,162.208 151.125,489.374 191.459,575.75c40.291,86.333 70.999,345.458 70.999,345.458c0,-0 -6.291,12.875 -28.041,17.583c-16.834,3.625 -34.167,2.208 -34.167,2.208c0,0 -158.791,-254.374 -181.583,-345.749c-12.334,-49.459 -200.792,-445.292 -200.792,-445.292l-9.125,-337.75Z" style="fill:#fff;fill-rule:nonzero;"/><path d="M1530.83,5726.89l-16,-115.292l67.225,-56.167l21.175,152.625l-72.4,18.834Z" style="fill:#ffb27d;fill-rule:nonzero;"/><path d="M1754.08,5829.85l-274.075,-0c0,-0 -6.566,-41.792 7.746,-73.458c13.721,-30.417 35.067,-49.209 37.013,-72.5c17.416,17.958 38.845,29.5 78.466,24.166c4.859,7.875 31.342,50 47.559,61.625c17.912,12.875 97.775,8.292 103.291,60.167Z" style="fill:#233862;fill-rule:nonzero;"/><path d="M1699.02,4170.39c-17.925,144.166 -32.584,280.124 -44.521,406.791c-63.783,675.042 -51.267,1087.62 -51.267,1087.62c0,0 -4.608,12.209 -44.154,12.375c-22.35,0.125 -44.242,-4.75 -44.242,-4.75c0,0 -142.812,-440.792 -131.787,-691.625c1.312,-30.166 4.854,-57.583 11.146,-81.208c34.258,-128.333 -126.78,-619.125 48.275,-801.917c175.02,-182.75 264.791,6.542 256.55,72.709Z" style="fill:#f99746;fill-rule:nonzero;"/><path d="M1699.02,4170.39c-17.925,144.166 -32.584,280.124 -44.521,406.791l-271.45,403.625c1.312,-30.166 4.854,-57.583 11.146,-81.208c34.258,-128.333 -126.78,-619.125 48.275,-801.917c175.02,-182.75 264.791,6.542 256.55,72.709Z" style="fill:#ed7d2b;fill-rule:nonzero;"/><path d="M1914.72,2795.1c-0,-0 -6.604,-32.946 -14.042,-58.084c-3.292,-11.125 19.65,-84.187 35.525,-93.179c15.879,-8.991 57.229,40.213 45.529,77.992c-6.012,19.408 -15.887,82.558 -15.887,82.558l-51.125,-9.287Z" style="fill:#ffb27d;fill-rule:nonzero;"/><path d="M1914.72,2795.1c-0,-0 -8.629,-19.1 -16.425,-22.2c-7.796,-3.096 -16.15,-34.33 -21.871,-46.709c-0,0 5.525,-8.104 15.196,2.317c5.9,6.358 19.05,25 19.05,25l4.05,41.592Z" style="fill:#ffb27d;fill-rule:nonzero;"/><path d="M783.302,2905.89c-1.679,3.458 -4.016,9.666 -6.096,15.5c-0.033,-1.584 -0.058,-3.167 -0.075,-4.709c-0.108,-11.583 -43.433,-74.746 -61.241,-78.696c-17.817,-3.954 -42.959,55.196 -20.709,87.905c11.429,16.791 39.354,74.291 39.354,74.291l46.167,-23.829c0,-0 2.663,-20.796 9.208,-26.042c6.546,-5.254 5.396,-37.546 7.242,-51.087c0,-0 -7.654,-6.125 -13.85,6.667Z" style="fill:#ffb27d;fill-rule:nonzero;"/><path d="M1071.19,5692.31c-3.875,-36.916 -4.834,-134.125 -4.834,-134.125c0,0 99.046,-31.666 95.4,-9.916c-17.92,106.875 -13.054,159.791 -13.054,159.791l-40.054,23.917l-37.458,-39.667Z" style="fill:#ffb27d;fill-rule:nonzero;"/><path d="M1616.29,4163.52c-0,0 -382.634,1048.88 -457.954,1503.83c-0,-0 -17.45,12 -50,8c-36.917,-4.5 -47.034,-30.167 -47.034,-30.167c0,0 -69.125,-545.291 68.267,-734.583c94.392,-130.083 -40.713,-701.292 179.133,-747.084c219.85,-45.791 307.588,0 307.588,0Z" style="fill:#f99746;fill-rule:nonzero;"/><path d="M1548.33,3154.56l-0.004,-0.041c-0.066,-0.459 -0.175,-0.876 -0.316,-1.334c-2.238,-9.25 -4.68,-18.333 -7.309,-27.333l-0.004,-0.042c-8.008,-27.583 -17.538,-53.833 -27.817,-77.041c-5.921,-13.292 -12.05,-25.621 -18.325,-36.58c-0.958,-1.712 -1.896,-3.254 -2.795,-4.879l-0.046,-0.042c-14.788,-24.874 -29.988,-42.041 -43.7,-47.333c-25.017,-9.662 -52.846,-7 -72.005,-3c4.205,-5.875 13.742,-9.166 13.742,-9.166c-12.262,-0.042 -37.233,15.833 -37.233,15.833c-176.234,-39.417 -165.933,209.875 -153.933,266.375c11.958,56.5 -44.784,83.958 -124.805,141.792c-152.712,110.291 -150.158,227.25 -150.158,227.25c1.379,0.583 2.883,1.249 4.442,2.041c6.145,-15.125 19.179,-43.792 32.841,-49.833c-0.387,1.333 -11.5,38.458 -14.654,59.208c23.263,12.834 55.454,32.667 90.409,55.084l0.045,0.041c46.771,29.917 98.392,64.375 139.759,92.334c-1.967,-11.375 -3.913,-27.625 -1.021,-36.792l13.179,40.833l1.729,5.334c26.4,17.874 47.229,32.208 57.804,39.541c1.084,0.75 2.046,1.417 2.909,2c3.091,2.083 4.745,3.25 4.745,3.25c-3.512,-14.417 11.896,-52.041 37.755,-99.458c1.77,-3.292 3.65,-6.667 5.566,-10.083c8.35,-15 17.671,-30.792 27.704,-47.084c3.613,-5.875 7.267,-11.75 11.059,-17.75c-0.004,-0.041 0.033,-0.041 0.033,-0.041c3.034,-4.834 6.104,-9.625 9.284,-14.501l0.029,-0.041c7.495,-11.583 15.246,-23.25 23.154,-34.917c20.483,-30.25 42.171,-60.291 63.604,-87.833c31.121,-40.125 61.658,-75 87.229,-97.833c0.838,-1.709 1.629,-3.459 2.342,-5.25c4.004,-9.292 7.075,-19.625 9.454,-30.167c0.742,-3.125 1.4,-6.333 1.979,-9.5c6.375,-33.542 6.5,-66.833 6.417,-74.708c2.046,32.375 1.233,56.833 -0.938,75.291c-0.491,4.084 -1.025,7.834 -1.641,11.333l0.008,0c-1.362,7.917 -2.933,14.417 -4.629,19.834c4.187,-5.208 7.871,-10.875 11.121,-17.125c2.129,-4.042 4.071,-8.333 5.787,-12.792c20.625,-52.667 15.075,-131.208 -2.796,-204.875Z" style="fill:#163560;fill-rule:nonzero;"/><path d="M1515.22,3407.14c0.592,0.166 -49.338,36.291 -91.692,31.208c-39.837,-4.75 -72.233,-50.667 -71.72,-50.833c15.733,-5.625 17.091,-28.625 2.508,-124.292l7.546,0.333l126.862,6.084c0,-0 2.963,39.208 8.317,75.75c4.479,30.666 10.667,59.499 18.179,61.75Z" style="fill:#ffb27d;fill-rule:nonzero;"/><path d="M1488.73,3269.64c0,-0 2.963,39.208 8.317,75.75c-69.25,8.291 -115.058,-49.167 -135.179,-81.834l126.862,6.084Z" style="fill:#ed975d;fill-rule:nonzero;"/><path d="M1347.14,3252.06c-0,0 -44.63,-51.75 -60.567,-99.291c-11.379,-33.917 -12.846,-165.75 119.767,-166.459c-0,0 38.266,-1.916 77.27,16.75c31.026,14.879 77.826,49.917 49.109,169.417l-6.154,39.875l-179.425,39.708Z" style="fill:#163560;fill-rule:nonzero;"/><path d="M1715,4143.39c0,-0 -165.087,98.083 -372.358,47.666c-2.442,-0.625 -170.671,-27.458 -170.671,-27.458c2.887,-7.917 24.629,-137.875 27.475,-145.125c36.771,-94.917 103.975,-609.917 160.125,-635.333c14.337,15.625 55.313,26.291 90.383,23.208c40.384,-3.583 53.905,-21.042 50.554,-39.792c44.688,21.125 79.025,40.75 79.025,40.75c40.846,61.209 135.467,736.084 135.467,736.084Z" style="fill:#fff;fill-rule:nonzero;"/><path d="M1516.9,3300.81c0,0 -162.758,26.959 -177.987,-74.666c-15.229,-101.584 -46.492,-166.542 56.779,-188.084c103.275,-21.5 129.321,14.254 142.654,46.917c13.333,32.708 20.5,206.208 -21.446,215.833Z" style="fill:#ffb27d;fill-rule:nonzero;"/><path d="M1469.63,3024.52c0,-0 -26.933,125.875 -92.871,153.708c-65.933,27.833 -98.404,13.875 -98.404,13.875c0,-0 46.375,-49.583 46.442,-124.125c-0,-0 102.696,-95.167 144.833,-43.458Z" style="fill:#163560;fill-rule:nonzero;"/><path d="M1460,3035.85c0,-0 37.321,21.666 49.304,46.333c11.984,24.667 23.567,77.417 38.825,73.292c0,-0 21.6,-86.042 -23.041,-126.292c-47.338,-42.625 -65.088,6.667 -65.088,6.667Z" style="fill:#163560;fill-rule:nonzero;"/><path d="M1966.96,2797.44c-6.616,-2.33 -16.375,-7.846 -29.096,-8.992c-11.333,-1.021 -25.575,2.671 -25.575,2.671c0,-0 -45.916,285.437 -49.329,300.562c-3.408,15.125 -196.958,233.167 -249.141,232.292c-47.121,-0.792 -102.946,35.583 -113.305,42.583c0,0 109.738,232.042 115.209,275.625c5.954,47.417 62.762,777.833 62.762,777.833c0,0 -3.379,33.959 60.109,15.709c63.483,-18.292 79.362,-33.375 79.362,-33.375c0,-0 -58.317,-575.042 -70.55,-753.833c-1.642,-24 -5.562,-46.25 -11.141,-66.751c-5.38,-19.749 -1.138,-40.875 10.925,-57.416c80.262,-110.208 207.016,-288.709 214.079,-326.667c10.375,-55.75 5.691,-400.241 5.691,-400.241Z" style="fill:#2b478b;fill-rule:nonzero;"/><path d="M1299.55,5829.85l-274.079,-0c-0,-0 -6.567,-41.792 7.746,-73.458c13.72,-30.417 35.07,-49.209 37.016,-72.5c17.417,17.958 38.846,29.5 78.471,24.166c4.854,7.875 31.338,50 47.554,61.625c17.909,12.875 97.775,8.292 103.292,60.167Z" style="fill:#233862;fill-rule:nonzero;"/><path d="M1487.82,3664.73c-9.234,-56.833 -127.167,-285.084 -127.167,-285.084c0,0 -74.554,-22.291 -123.625,-4.499c-49.067,17.75 -302.946,-125.584 -311.083,-138.792c-8.138,-13.167 -144.117,-266.542 -144.117,-266.542c0,0 -11.275,-6.537 -29.342,2.88c-17.87,9.291 -17.95,27.495 -17.95,27.495c0,0 104.946,319 132.867,368.375c16.838,29.75 158.388,133.375 268.134,210.959c20.954,14.791 31.958,40.041 28.516,65.458c-14.754,109.083 -18.512,170.542 -35.483,357.708c-14.079,155.292 -19.467,455.959 -19.467,455.959c0,-0 122.809,42.5 207.567,48.124c84.758,5.667 103.229,-83.708 103.229,-83.708c0,0 77.417,-699.875 67.921,-758.333Z" style="fill:#2b478b;fill-rule:nonzero;"/><path d="M1463.57,3250.56c-0,0 19.775,11.625 43.121,8.125c15.991,-2.416 19.625,-21.375 19.625,-21.375c-0,0 -11.117,-3.5 -28.859,0.084c-17.741,3.541 -33.887,13.166 -33.887,13.166Z" style="fill:#fff;fill-rule:nonzero;"/><path d="M6662.12,1313.48c-0,-0 -76.125,-135.342 -0,-162.875c76.167,-27.529 110.625,-2.142 114.25,28.687c3.625,30.825 -29,152.321 -29,152.321l-85.25,-18.133Z" style="fill:#ffb27d;fill-rule:nonzero;"/><path d="M6723.16,2179.07c-138.834,25.025 -266.5,36.629 -381.75,39.208c-109.375,2.462 -207.5,-3.229 -293.417,-13.204c-23.083,-2.646 -45.25,-5.621 -66.542,-8.85c-224.791,-34.092 -348.958,-94.546 -348.958,-94.546c-0,-0 205.417,-429.987 371.375,-413.488c194.667,19.404 524.542,194.104 557.333,145.109c36.917,-55.2 67.834,-528.6 67.834,-528.6c86.291,-59.113 137.833,3.191 137.833,3.191c-0,0 168.625,832.884 -43.708,871.18Z" style="fill:#f99746;fill-rule:nonzero;"/><path d="M6723.16,2179.07c-138.834,25.025 -266.5,36.629 -381.75,39.208c-109.375,2.462 -207.5,-3.229 -293.417,-13.204c-51.792,-164.726 -89.042,-332.971 15.125,-231.53c183.75,178.905 660.042,205.526 660.042,205.526Z" style="fill:#ed7d2b;fill-rule:nonzero;"/><path d="M5616.91,5650.81c-0,0 -14.75,170.959 21.375,188.709l462.416,-0.917c0,-0 0,-53.375 -74.291,-65.25c-74.25,-11.833 -204.75,-55.333 -226.834,-152.167c-22.083,-96.875 -182.666,29.625 -182.666,29.625Z" style="fill:#233862;fill-rule:nonzero;"/><path d="M5956.41,3581.98c-2.292,111.75 -7.667,227.042 -18.167,330.667c-49.958,491.666 -67.5,1085.75 -74.667,1200.29c-12.458,198.792 -51.708,516.417 -51.708,516.417c0,-0 -77.917,73.958 -229.792,38.667c0,-0 -125.792,-457.459 -153.917,-939.167c-0.416,-7.917 -0.833,-15.875 -1.249,-23.792c-3.25,-63.708 -6.667,-136.5 -10.167,-215.041c-23.125,-525.959 -48.25,-1307.25 -48.25,-1307.25l580.25,-136.249c0,-0 13.375,256.791 7.667,535.458Z" style="fill:#2a4e96;fill-rule:nonzero;"/><path d="M5956.41,3581.98c-147.084,253.708 -427.375,721.167 -539.667,908.042c-23.125,-525.959 -48.25,-1307.25 -48.25,-1307.25l580.25,-136.249c0,-0 13.375,256.791 7.667,535.458Z" style="fill:#233862;fill-rule:nonzero;"/><path d="M4487.12,3090.48c-0,-0 -94.417,111.041 -102.917,141.833c-8.5,30.792 -23.625,141.709 -15.5,175.042c8.084,33.333 70.875,-92.958 93.709,-106.417c22.833,-13.5 -17.126,50.209 -9.334,60.834c7.792,10.624 52.875,-37.167 70.459,-53.375c17.583,-16.167 15.833,-103.251 36.958,-154.751c21.125,-51.499 -73.375,-63.166 -73.375,-63.166Z" style="fill:#ffb27d;fill-rule:nonzero;"/><path d="M4465,5456.56c0,0 -82.333,75.083 -66.25,128.459c16.042,53.375 90.333,88.958 100.375,154.166c10.042,65.25 50.167,100.834 86.291,100.834l172.293,-0c-0,-0 26.583,-45.917 -37.667,-59.75c-64.209,-13.834 -88.459,-90.5 -84.417,-161.625c4,-71.167 -6.041,-166.042 -6.041,-166.042l-136.501,-31.625l-28.083,35.583Z" style="fill:#233862;fill-rule:nonzero;"/><path d="M5857.33,3194.68c0,0 -543.208,1162.25 -832.292,1672.21c-289.041,509.959 -379.374,652.25 -379.374,652.25c-0,0 -165.625,-65.208 -180.667,-109.708c0,0 110.541,-984.5 304.125,-1224.5c109.375,-135.583 237.875,-542.542 243.875,-684.875c6.042,-142.333 132.917,-482 132.917,-482l711.416,176.625Z" style="fill:#2a4e96;fill-rule:nonzero;"/><path d="M6016.12,3249.48c-0,-0 -216,144.417 -521.75,131c-134.167,-5.833 -400.292,-43.875 -443.25,-150.584c-10.083,-25.083 -2.709,-56.874 12.416,-105.666c39.292,-126.834 130.792,-368.363 103.167,-903.896c-2.583,-49.821 -1.166,-96.675 3.583,-140.538c28.792,-263.779 179.959,-419.999 326.084,-471.041c356.333,-124.546 475.125,48 475.125,48c-0,-0 157.5,124.792 181.25,385.221c47.458,520.929 -136.625,1207.5 -136.625,1207.5Z" style="fill:#f99746;fill-rule:nonzero;"/><path d="M5600.79,1578.83c-0,0 163.5,99.446 340.833,71.325c-0,-0 35.083,-8.912 17.833,-50.075c10.792,-33.217 9.5,-30.229 15.75,-54.912c15.542,-56.809 20.292,-89.588 20.292,-89.588l-100.625,-105.779l-95.333,-101.084c-26.334,241.605 -198.75,330.113 -198.75,330.113Z" style="fill:#ffb27d;fill-rule:nonzero;"/><path d="M5784.29,1340.34c-0,0 54.749,146.392 190.916,204.826c15.542,-56.809 25.667,-116.242 25.667,-116.242l-106,-79.125l-110.583,-9.459Z" style="fill:#ed985f;fill-rule:nonzero;"/><path d="M6108.41,1450.47c-0,-0 -312.084,39.012 -334.001,-152.775c-21.916,-191.788 -76.958,-315.921 121.375,-348.938c198.334,-33.016 245.501,35.917 268.626,98.196c23.124,62.283 24.624,388.425 -56,403.517Z" style="fill:#ffb27d;fill-rule:nonzero;"/><path d="M5675.87,917.584c-2.708,-3.337 -9.083,-6.188 -23.5,-7.521c0,0 11.833,-6.787 27.291,-6.587c3.751,-19.983 15.792,-55.154 50.709,-62.492c-0,0 -18.959,9.208 -22.166,30.483c41.583,-39.633 128.583,-66.337 365.583,-38.583c312.375,36.575 201.541,233.254 160.041,255.633c-41.458,22.38 -141.041,-47.037 -216.833,-43.896c-75.792,3.138 -94.333,111.792 -120.5,125.805c-26.209,14.016 -15.125,-12.096 -49.208,-29.088c-34.125,-16.987 -39.583,40.363 -30.959,78.109c8.584,37.75 -40.916,85.237 -40.916,85.237l-46.209,-53.687c-46.208,-53.688 -83.291,-275.092 -59.625,-321.096c2.084,-4.063 4.167,-8.183 6.292,-12.317Z" style="fill:#2c3a64;fill-rule:nonzero;"/><path d="M6629.04,1223.7l-529.834,4.717l-3.625,-79.705l528.167,-40.933l5.292,115.921Z" style="fill:#2a4e96;fill-rule:nonzero;"/><path d="M7029,1237.01l-576.875,8.342l-6.583,-144.921l575.208,-44.571l8.25,181.15Z" style="fill:#2a4e96;fill-rule:nonzero;"/><path d="M7417.95,1248.38l-486.454,0.604l-8.875,-195.642l484.458,-44.079l10.871,239.117Z" style="fill:#233862;fill-rule:nonzero;"/><path d="M7424.91,1281.4c14.995,-0.683 26.624,-13.4 25.916,-28.404l-11.416,-251.317c-0.672,-15.008 -13.375,-26.621 -28.375,-25.937c-15.042,0.679 -26.626,13.4 -25.959,28.404l11.417,251.316c0.662,15.005 13.416,26.621 28.417,25.938Z" style="fill:#233862;fill-rule:nonzero;"/><path d="M6097.54,1245.43c-13.334,0.609 -24.626,-9.717 -25.25,-23.054l-2.959,-65.213c-0.625,-13.341 9.709,-24.645 23.042,-25.25c13.375,-0.608 24.667,9.717 25.25,23.054l2.958,65.213c0.625,13.342 -9.708,24.646 -23.041,25.25Z" style="fill:#2a4e96;fill-rule:nonzero;"/><path d="M5063.54,3124.23c39.292,-126.834 130.792,-368.363 103.167,-903.896c-2.583,-49.821 -1.166,-96.675 3.583,-140.538l0.042,0.005c117.25,-10.079 296.542,116.7 296.542,116.7c-0,-0 -110.417,673.062 -403.334,927.729Z" style="fill:#ed7d2b;fill-rule:nonzero;"/><path d="M5600.79,1578.83c-0,0 -300.709,51.692 -457.542,243.15c-156.834,191.463 -409.125,461.429 -468.75,555.963c-59.667,94.537 -225.25,737.908 -225.25,737.908c0,-0 10.958,20.667 56.625,32.708c43.708,11.542 75.416,-6.333 75.416,-6.333c0,-0 219.376,-375.454 301.959,-563.021c34.292,-77.929 627.584,-386.55 850.625,-354.575c87.583,12.562 -133.083,-645.8 -133.083,-645.8Z" style="fill:#f99746;fill-rule:nonzero;"/><path d="M6625.87,1084.95c0,-0 64.667,39.562 103.375,22.825c38.667,-16.742 35.25,-32.063 35.25,-32.063c0,0 -116.875,-32.429 -138.625,9.238Z" style="fill:#ffb27d;fill-rule:nonzero;"/><path d="M5892.58,1788.58c-0,0 -131.959,833.142 -1068.25,1075.73l-102,201.209l179.167,30.333c-0,-0 1065.96,-308.817 1051.58,-1322l-60.499,14.733Z" style="fill:#bc3f3f;fill-rule:nonzero;"/><path d="M5872.12,1655.6l-43.208,4.233l-0,62.558l63.667,66.192l60.541,-14.733l-0,-86.817l-43.542,-31.433l-37.458,-0Z" style="fill:#a02e2e;fill-rule:nonzero;"/><path d="M5702.54,1489.92c0,-0 -41.833,9.437 -137.5,88.912c0,0 95.126,201.896 295.793,226.075c-0,-0 -3.209,-93.696 11.291,-149.308c0,-0 -159.042,-56.933 -169.584,-165.679Z" style="fill:#ed7d2b;fill-rule:nonzero;"/><path d="M5872.12,1655.6c0,-0 97.917,51.983 105.167,132.983c-0,0 37.416,-59.304 26.583,-100.375c-10.875,-41.071 -44.417,-88.125 -44.417,-88.125c0,0 3.334,49.471 -87.333,55.517Z" style="fill:#ed7d2b;fill-rule:nonzero;"/></svg>