<?xml version="1.0" encoding="UTF-8" standalone="no"?><!DOCTYPE svg PUBLIC "-//W3C//DTD SVG 1.1//EN" "http://www.w3.org/Graphics/SVG/1.1/DTD/svg11.dtd"><svg width="100%" height="100%" viewBox="0 0 1645 327" version="1.1" xmlns="http://www.w3.org/2000/svg" xmlns:xlink="http://www.w3.org/1999/xlink" xml:space="preserve" xmlns:serif="http://www.serif.com/" style="fill-rule:evenodd;clip-rule:evenodd;stroke-linejoin:round;stroke-miterlimit:2;"><path d="M1644.5,326.483l-0,-326.483l-1644.5,0l0,326.483l1644.5,-0Zm-1195.25,-313.983l-0,301.483l-436.75,-0c0,-0 -0,-301.483 -0,-301.483l436.75,-0Zm-226.365,224.534c-11.032,-0 -20.561,-2.356 -28.586,-7.067c-8.026,-4.711 -14.217,-11.292 -18.573,-19.744c-4.356,-8.452 -6.534,-18.265 -6.534,-29.439c0,-11.269 2.178,-21.129 6.534,-29.581c4.356,-8.452 10.547,-15.033 18.573,-19.744c8.025,-4.712 17.554,-7.067 28.586,-7.067c11.033,-0 20.561,2.355 28.587,7.067c8.026,4.711 14.216,11.292 18.572,19.744c4.356,8.452 6.535,18.312 6.535,29.581c-0,11.174 -2.179,20.987 -6.535,29.439c-4.356,8.452 -10.546,15.033 -18.572,19.744c-8.026,4.711 -17.554,7.067 -28.587,7.067Zm960.922,-0c-11.032,-0 -20.561,-2.356 -28.587,-7.067c-8.025,-4.711 -14.216,-11.292 -18.572,-19.744c-4.356,-8.452 -6.534,-18.265 -6.534,-29.439c-0,-11.269 2.178,-21.129 6.534,-29.581c4.356,-8.452 10.547,-15.033 18.572,-19.744c8.026,-4.712 17.555,-7.067 28.587,-7.067c11.032,-0 20.561,2.355 28.586,7.067c8.026,4.711 14.217,11.292 18.573,19.744c4.356,8.452 6.534,18.312 6.534,29.581c-0,11.174 -2.178,20.987 -6.534,29.439c-4.356,8.452 -10.547,15.033 -18.573,19.744c-8.025,4.711 -17.554,7.067 -28.586,7.067Zm335.653,-48.935l0,0.071c0,5.398 1.006,10.062 3.019,13.992c2.012,3.93 4.865,6.96 8.558,9.091c3.693,2.13 8.073,3.196 13.139,3.196c3.362,-0 6.44,-0.474 9.233,-1.421c2.794,-0.947 5.185,-2.367 7.173,-4.261c1.989,-1.894 3.504,-4.214 4.546,-6.96l27.983,1.846c-1.421,6.724 -4.321,12.583 -8.7,17.578c-4.38,4.996 -10.015,8.878 -16.904,11.648c-6.889,2.77 -14.832,4.155 -23.828,4.155c-11.222,-0 -20.869,-2.285 -28.942,-6.854c-8.073,-4.569 -14.287,-11.056 -18.643,-19.46c-4.356,-8.404 -6.534,-18.359 -6.534,-29.865c-0,-11.222 2.178,-21.07 6.534,-29.546c4.356,-8.475 10.499,-15.08 18.43,-19.815c7.931,-4.735 17.247,-7.102 27.948,-7.102c7.197,-0 13.908,1.148 20.135,3.444c6.226,2.297 11.671,5.741 16.335,10.334c4.664,4.593 8.298,10.358 10.902,17.294c2.604,6.937 3.906,15.045 3.906,24.326l-0,8.309l-74.29,0Zm-603.835,0l-0,0.071c-0,5.398 1.006,10.062 3.018,13.992c2.013,3.93 4.866,6.96 8.559,9.091c3.693,2.13 8.073,3.196 13.139,3.196c3.362,-0 6.439,-0.474 9.233,-1.421c2.793,-0.947 5.185,-2.367 7.173,-4.261c1.989,-1.894 3.504,-4.214 4.546,-6.96l27.983,1.846c-1.421,6.724 -4.321,12.583 -8.701,17.578c-4.379,4.996 -10.014,8.878 -16.903,11.648c-6.889,2.77 -14.832,4.155 -23.828,4.155c-11.222,-0 -20.869,-2.285 -28.942,-6.854c-8.073,-4.569 -14.287,-11.056 -18.643,-19.46c-4.357,-8.404 -6.535,-18.359 -6.535,-29.865c0,-11.222 2.178,-21.07 6.535,-29.546c4.356,-8.475 10.499,-15.08 18.43,-19.815c7.931,-4.735 17.247,-7.102 27.947,-7.102c7.197,-0 13.909,1.148 20.135,3.444c6.227,2.297 11.672,5.741 16.336,10.334c4.663,4.593 8.297,10.358 10.902,17.294c2.604,6.937 3.906,15.045 3.906,24.326l-0,8.309l-74.29,0Zm556.747,-31.179l-27.699,1.705c-0.473,-2.368 -1.491,-4.51 -3.054,-6.428c-1.562,-1.917 -3.61,-3.456 -6.143,-4.616c-2.533,-1.16 -5.552,-1.74 -9.056,-1.74c-4.687,-0 -8.641,0.982 -11.86,2.947c-3.22,1.965 -4.83,4.581 -4.83,7.848c0,2.604 1.042,4.806 3.125,6.605c2.083,1.8 5.658,3.244 10.725,4.333l19.744,3.977c10.606,2.178 18.513,5.682 23.721,10.511c5.209,4.83 7.813,11.175 7.813,19.034c-0,7.15 -2.095,13.424 -6.286,18.821c-4.19,5.398 -9.919,9.6 -17.187,12.607c-7.268,3.007 -15.637,4.51 -25.107,4.51c-14.441,-0 -25.935,-3.019 -34.481,-9.055c-8.547,-6.037 -13.554,-14.264 -15.021,-24.681l29.758,-1.562c0.9,4.403 3.078,7.753 6.534,10.049c3.457,2.297 7.884,3.445 13.281,3.445c5.303,-0 9.577,-1.03 12.82,-3.09c3.243,-2.059 4.889,-4.723 4.936,-7.99c-0.047,-2.746 -1.207,-5.007 -3.48,-6.782c-2.273,-1.776 -5.777,-3.137 -10.511,-4.084l-18.892,-3.764c-10.654,-2.131 -18.573,-5.824 -23.758,-11.08c-5.184,-5.256 -7.777,-11.955 -7.777,-20.099c0,-7.008 1.906,-13.045 5.718,-18.111c3.811,-5.066 9.185,-8.973 16.122,-11.719c6.937,-2.746 15.069,-4.119 24.396,-4.119c13.779,-0 24.633,2.912 32.564,8.736c7.931,5.824 12.559,13.754 13.885,23.792Zm-743.821,80.043c-6.96,-0 -13.163,-1.219 -18.608,-3.658c-5.445,-2.438 -9.742,-6.06 -12.89,-10.866c-3.149,-4.806 -4.723,-10.808 -4.723,-18.005c-0,-6.06 1.112,-11.15 3.338,-15.269c2.225,-4.12 5.255,-7.434 9.091,-9.944c3.835,-2.509 8.203,-4.403 13.103,-5.681c4.901,-1.279 10.05,-2.178 15.448,-2.699c6.344,-0.663 11.458,-1.29 15.341,-1.882c3.882,-0.592 6.699,-1.48 8.451,-2.664c1.752,-1.183 2.628,-2.935 2.628,-5.255l0,-0.427c0,-4.498 -1.409,-7.978 -4.226,-10.44c-2.817,-2.462 -6.806,-3.693 -11.967,-3.693c-5.445,-0 -9.778,1.196 -12.997,3.587c-3.22,2.391 -5.351,5.385 -6.392,8.984l-27.983,-2.273c1.42,-6.629 4.214,-12.37 8.38,-17.223c4.167,-4.853 9.553,-8.594 16.158,-11.221c6.605,-2.628 14.264,-3.942 22.976,-3.942c6.061,-0 11.873,0.71 17.436,2.131c5.564,1.42 10.511,3.622 14.844,6.605c4.332,2.983 7.753,6.806 10.263,11.47c2.509,4.664 3.764,10.239 3.764,16.726l-0,73.579l-28.693,0l-0,-15.128l-0.853,0c-1.752,3.409 -4.095,6.404 -7.031,8.985c-2.936,2.58 -6.463,4.593 -10.582,6.037c-4.12,1.444 -8.878,2.166 -14.276,2.166Zm-610.14,-147.514l30.398,-0l-0,101.42c-0,9.375 -2.096,17.519 -6.286,24.432c-4.19,6.913 -10.002,12.24 -17.436,15.98c-7.434,3.741 -16.075,5.611 -25.923,5.611c-8.76,-0 -16.702,-1.551 -23.828,-4.652c-7.126,-3.101 -12.773,-7.836 -16.939,-14.205c-4.167,-6.368 -6.227,-14.382 -6.179,-24.041l30.611,0c0.094,3.835 0.887,7.114 2.379,9.837c1.491,2.722 3.551,4.806 6.179,6.25c2.628,1.444 5.741,2.166 9.339,2.166c3.788,-0 6.996,-0.817 9.624,-2.45c2.628,-1.634 4.628,-4.037 6.001,-7.209c1.373,-3.172 2.06,-7.079 2.06,-11.719l-0,-101.42Zm178.48,145.454l0,-145.454l30.256,-0l-0,54.687l0.923,0c1.326,-2.935 3.255,-5.93 5.788,-8.984c2.533,-3.054 5.848,-5.611 9.944,-7.671c4.095,-2.059 9.197,-3.089 15.305,-3.089c7.954,-0 15.293,2.071 22.017,6.214c6.723,4.143 12.098,10.37 16.122,18.679c4.025,8.31 6.037,18.715 6.037,31.215c0,12.168 -1.953,22.431 -5.859,30.788c-3.907,8.357 -9.21,14.678 -15.909,18.963c-6.7,4.285 -14.193,6.428 -22.479,6.428c-5.871,-0 -10.855,-0.971 -14.95,-2.912c-4.096,-1.941 -7.446,-4.392 -10.05,-7.351c-2.604,-2.959 -4.593,-5.954 -5.966,-8.984l-1.349,-0l-0,17.471l-29.83,0Zm1030.31,-46.449l-0,-62.642l30.255,0l0,109.091l-29.048,0l0,-19.815l-1.136,-0c-2.462,6.392 -6.546,11.529 -12.252,15.412c-5.705,3.882 -12.654,5.824 -20.845,5.824c-7.292,-0 -13.707,-1.657 -19.247,-4.972c-5.54,-3.314 -9.86,-8.025 -12.962,-14.133c-3.101,-6.108 -4.675,-13.424 -4.723,-21.946l0,-69.461l30.256,0l-0,64.063c0.047,6.439 1.776,11.529 5.185,15.27c3.409,3.74 7.978,5.611 13.707,5.611c3.646,-0 7.055,-0.841 10.227,-2.522c3.173,-1.681 5.741,-4.178 7.706,-7.493c1.965,-3.314 2.924,-7.41 2.877,-12.287Zm-513.708,46.449l0,-109.091l29.333,0l-0,19.034l1.136,0c1.989,-6.77 5.327,-11.896 10.014,-15.376c4.688,-3.48 10.085,-5.22 16.193,-5.22c1.516,-0 3.149,0.095 4.901,0.284c1.752,0.189 3.291,0.45 4.616,0.781l0,26.847c-1.42,-0.426 -3.385,-0.805 -5.894,-1.137c-2.51,-0.331 -4.806,-0.497 -6.89,-0.497c-4.45,0 -8.416,0.959 -11.896,2.877c-3.48,1.917 -6.226,4.581 -8.239,7.99c-2.012,3.409 -3.018,7.339 -3.018,11.789l-0,61.719l-30.256,0Zm226.421,-63.068l-0,63.068l-30.256,0l0,-145.454l29.403,-0l0,55.61l1.279,0c2.462,-6.439 6.439,-11.493 11.932,-15.163c5.492,-3.669 12.381,-5.504 20.667,-5.504c7.576,-0 14.193,1.645 19.851,4.936c5.658,3.291 10.062,8.002 13.21,14.133c3.149,6.132 4.7,13.459 4.652,21.982l0,69.46l-30.255,0l-0,-64.062c0.047,-6.724 -1.646,-11.956 -5.078,-15.696c-3.433,-3.741 -8.227,-5.611 -14.383,-5.611c-4.119,-0 -7.753,0.876 -10.901,2.628c-3.149,1.752 -5.611,4.297 -7.387,7.635c-1.775,3.338 -2.687,7.351 -2.734,12.038Zm-504.546,63.068l-41.619,-145.454l33.594,-0l24.076,101.065l1.208,0l26.562,-101.065l28.765,-0l26.491,101.278l1.278,0l24.077,-101.278l33.594,-0l-41.619,145.454l-29.972,0l-27.699,-95.099l-1.136,-0l-27.628,95.099l-29.972,0Zm201.847,-18.821c4.451,0 8.381,-0.888 11.79,-2.663c3.409,-1.776 6.084,-4.179 8.025,-7.209c1.942,-3.03 2.912,-6.463 2.912,-10.298l0,-11.577c-0.947,0.616 -2.237,1.172 -3.871,1.669c-1.633,0.497 -3.468,0.947 -5.504,1.35c-2.036,0.402 -4.072,0.757 -6.108,1.065c-2.036,0.308 -3.882,0.58 -5.54,0.817c-3.551,0.52 -6.652,1.349 -9.304,2.485c-2.651,1.137 -4.711,2.664 -6.179,4.581c-1.467,1.918 -2.201,4.297 -2.201,7.138c-0,4.119 1.503,7.256 4.51,9.411c3.006,2.154 6.83,3.231 11.47,3.231Zm-514.189,-2.486c5.019,0 9.21,-1.432 12.571,-4.296c3.362,-2.865 5.907,-6.783 7.635,-11.755c1.729,-4.971 2.593,-10.629 2.593,-16.974c-0,-6.345 -0.864,-12.003 -2.593,-16.975c-1.728,-4.971 -4.273,-8.901 -7.635,-11.789c-3.361,-2.889 -7.552,-4.333 -12.571,-4.333c-5.066,0 -9.315,1.444 -12.748,4.333c-3.433,2.888 -6.013,6.818 -7.742,11.789c-1.728,4.972 -2.592,10.63 -2.592,16.975c0,6.345 0.864,12.003 2.592,16.974c1.729,4.972 4.309,8.89 7.742,11.755c3.433,2.864 7.682,4.296 12.748,4.296Zm960.922,0c5.019,0 9.209,-1.432 12.571,-4.296c3.362,-2.865 5.907,-6.783 7.635,-11.755c1.728,-4.971 2.592,-10.629 2.592,-16.974c0,-6.345 -0.864,-12.003 -2.592,-16.975c-1.728,-4.971 -4.273,-8.901 -7.635,-11.789c-3.362,-2.889 -7.552,-4.333 -12.571,-4.333c-5.066,0 -9.316,1.444 -12.749,4.333c-3.432,2.888 -6.013,6.818 -7.741,11.789c-1.728,4.972 -2.593,10.63 -2.593,16.975c0,6.345 0.865,12.003 2.593,16.974c1.728,4.972 4.309,8.89 7.741,11.755c3.433,2.864 7.683,4.296 12.749,4.296Zm-857.441,-33.238c-0,6.487 0.899,12.145 2.698,16.974c1.8,4.83 4.404,8.582 7.813,11.257c3.409,2.676 7.552,4.013 12.429,4.013c4.924,0 9.091,-1.361 12.5,-4.084c3.409,-2.722 6.001,-6.51 7.777,-11.363c1.775,-4.854 2.663,-10.453 2.663,-16.797c0,-6.298 -0.876,-11.837 -2.628,-16.62c-1.752,-4.782 -4.332,-8.522 -7.741,-11.221c-3.409,-2.699 -7.6,-4.048 -12.571,-4.048c-4.924,-0 -9.079,1.302 -12.465,3.906c-3.385,2.604 -5.977,6.297 -7.777,11.079c-1.799,4.783 -2.698,10.417 -2.698,16.904Zm589.146,-11.009c0.182,-3.919 1.19,-7.506 3.025,-10.76c1.989,-3.527 4.747,-6.344 8.274,-8.451c3.528,-2.107 7.588,-3.161 12.181,-3.161c4.403,0 8.274,0.959 11.612,2.877c3.338,1.917 5.954,4.557 7.848,7.919c1.894,3.361 2.841,7.22 2.841,11.576l-45.781,0Zm603.835,0c0.182,-3.919 1.191,-7.506 3.025,-10.76c1.989,-3.527 4.747,-6.344 8.274,-8.451c3.528,-2.107 7.588,-3.161 12.181,-3.161c4.403,0 8.274,0.959 11.612,2.877c3.338,1.917 5.954,4.557 7.848,7.919c1.894,3.361 2.841,7.22 2.841,11.576l-45.781,0Z" style="fill:#0d6efd;"/></svg>